<?xml version="1.0" standalone="no"?>
<!DOCTYPE svg PUBLIC "-//W3C//DTD SVG 20010904//EN"
 "http://www.w3.org/TR/2001/REC-SVG-20010904/DTD/svg10.dtd">
<svg version="1.0" xmlns="http://www.w3.org/2000/svg"
 width="177.000000pt" height="177.000000pt" viewBox="0 0 177.000000 177.000000"
 preserveAspectRatio="xMidYMid meet">
<metadata>
Created by potrace 1.15, written by Peter Selinger 2001-2017
</metadata>
<g transform="translate(0.000000,177.000000) scale(0.100000,-0.100000)"
fill="#000000" stroke="none">
<path d="M747 1739 c-110 -26 -218 -116 -270 -227 -29 -62 -32 -77 -35 -195
-4 -112 -2 -130 13 -147 22 -25 47 -25 67 -2 12 13 17 47 20 137 4 135 19 177
87 248 61 65 123 91 216 91 72 0 86 -3 143 -33 54 -29 66 -32 87 -23 30 14 34
61 8 84 -72 63 -225 93 -336 67z"/>
<path d="M1139 1494 c-10 -12 -10 -27 -1 -73 7 -31 12 -67 12 -79 0 -12 11
-29 25 -38 23 -15 27 -15 51 1 25 16 26 21 21 74 -2 31 -12 73 -20 94 -13 31
-21 37 -45 37 -16 0 -35 -7 -43 -16z"/>
<path d="M1162 1138 c-9 -9 -12 -78 -12 -250 0 -218 2 -242 21 -295 30 -80
112 -162 194 -193 122 -45 265 -13 348 79 42 46 45 61 19 84 -27 24 -55 21
-83 -9 -33 -36 -116 -74 -163 -74 -94 0 -173 50 -212 134 -23 49 -24 61 -24
274 0 135 -4 231 -10 243 -12 22 -59 26 -78 7z"/>
<path d="M456 1004 c-13 -13 -16 -43 -16 -172 -1 -170 -8 -207 -55 -268 -34
-44 -115 -84 -171 -84 -23 0 -61 7 -84 15 -58 21 -77 19 -95 -9 -21 -32 -10
-53 39 -78 62 -32 175 -36 248 -8 75 28 150 96 185 168 27 55 28 63 31 238 3
158 1 183 -13 198 -21 20 -49 21 -69 0z"/>
<path d="M941 947 c-7 -9 -11 -115 -12 -329 -2 -351 1 -371 66 -460 52 -71
116 -77 123 -13 3 20 -5 36 -27 59 -59 61 -61 75 -61 408 0 259 -2 307 -16
326 -17 25 -56 29 -73 9z"/>
<path d="M670 571 c-5 -11 -10 -74 -10 -141 0 -131 -8 -163 -55 -218 -38 -45
-97 -73 -169 -79 -69 -6 -86 -16 -86 -48 0 -42 32 -58 104 -53 119 10 226 81
277 186 21 42 24 64 27 195 2 105 0 152 -8 163 -18 21 -67 18 -80 -5z"/>
</g>
</svg>
